<?xml version="1.0" encoding="utf-8"?>
<!-- Generator: Adobe Illustrator 19.0.1, SVG Export Plug-In . SVG Version: 6.00 Build 0)  -->
<svg version="1.1" id="Слой_1" xmlns="http://www.w3.org/2000/svg" xmlns:xlink="http://www.w3.org/1999/xlink" x="0px" y="0px"
	 viewBox="0 0 64 64" style="enable-background:new 0 0 64 64;" xml:space="preserve">
<style type="text/css">
	.st0{fill:none;}
	.st1{fill:#2B7ABF;}
	.st2{fill:#F0B32F;}
</style>
<path class="st0" d="M27.7,17.9c-0.9,0-1.7-0.6-1.9-1.5c-7.4,0.9-13.1,7.2-13.1,14.9c0,8.3,6.7,15,15,15s15-6.7,15-15
	c0-7.6-5.7-13.9-13.1-14.9C29.4,17.2,28.6,17.9,27.7,17.9z"/>
<path class="st1" d="M33.9,16c0,0.2,0.1,0.3,0.1,0.5c0,0.2,0,0.4-0.1,0.5C41.3,18,47,24.3,47,32c0,8.3-6.7,15-15,15s-15-6.7-15-15
	C17,24.3,22.7,18,30.1,17c0-0.2-0.1-0.3-0.1-0.5c0-0.2,0-0.3,0.1-0.5C22.2,17,16,23.8,16,32c0,8.8,7.2,16,16,16s16-7.2,16-16
	C48,23.8,41.9,17,33.9,16z"/>
<path class="st2" d="M30.1,17.1c0.2,0.9,1,1.5,1.9,1.5c0.9,0,1.7-0.6,1.9-1.5c0-0.2,0.1-0.3,0.1-0.5s0-0.3-0.1-0.5
	c-0.2-0.9-1-1.5-1.9-1.5c-0.9,0-1.7,0.6-1.9,1.5c0,0.2-0.1,0.3-0.1,0.5C30,16.7,30,16.9,30.1,17.1z M32,15.6c0.3,0,0.6,0.2,0.8,0.4
	c0.1,0.2,0.2,0.4,0.2,0.6s0,0.3-0.1,0.4c-0.2,0.3-0.5,0.6-0.9,0.6c-0.4,0-0.7-0.2-0.9-0.6C31,16.9,31,16.7,31,16.6
	c0-0.2,0.1-0.4,0.2-0.6C31.4,15.7,31.7,15.6,32,15.6z"/>
</svg>
