<?xml version="1.0" encoding="utf-8"?>
<!-- Generator: Adobe Illustrator 19.0.1, SVG Export Plug-In . SVG Version: 6.00 Build 0)  -->
<svg version="1.1" id="Слой_1" xmlns="http://www.w3.org/2000/svg" xmlns:xlink="http://www.w3.org/1999/xlink" x="0px" y="0px"
	 viewBox="0 0 64 64" enable-background="new 0 0 64 64" xml:space="preserve">
<path fill="none" d="M16.8,53.4c0,1.4-0.5,2.7-1.3,3.7C20.3,60.2,25.9,62,32,62c16.6,0,30-13.4,30-30S48.6,2,32,2S2,15.4,2,32
	c0,6.2,1.9,12,5.1,16.7c1-0.8,2.3-1.3,3.7-1.3C14.1,47.4,16.8,50.1,16.8,53.4z"/>
<path fill="#2B7ABF" d="M32,1C14.9,1,1,14.9,1,32c0,6.5,2,12.5,5.4,17.4c0.2-0.3,0.5-0.5,0.7-0.7C3.9,44,2,38.2,2,32
	C2,15.4,15.4,2,32,2s30,13.4,30,30S48.6,62,32,62c-6.1,0-11.7-1.8-16.4-4.9c-0.2,0.3-0.4,0.5-0.7,0.7C19.8,61.1,25.7,63,32,63
	c17.1,0,31-13.9,31-31C63,14.9,49.1,1,32,1z"/>
<path fill="#F0B32F" d="M15.6,57.1c0.8-1,1.3-2.3,1.3-3.7c0-3.3-2.7-6-6-6c-1.4,0-2.7,0.5-3.7,1.3c-0.3,0.2-0.5,0.4-0.7,0.7
	c-1,1.1-1.5,2.5-1.5,4c0,3.3,2.7,6,6,6c1.6,0,3-0.6,4.1-1.6C15.1,57.6,15.4,57.4,15.6,57.1z M10.8,58.4c-2.8,0-5-2.2-5-5
	c0-1.2,0.4-2.3,1.1-3.1c0.2-0.3,0.5-0.5,0.7-0.7c0.9-0.7,1.9-1.1,3.1-1.1c2.8,0,5,2.2,5,5c0,1.2-0.4,2.2-1.1,3.1
	c-0.2,0.3-0.4,0.5-0.7,0.7C13.1,58,12,58.4,10.8,58.4z"/>
<circle fill="#F0B32F" cx="10.8" cy="2" r="1"/>
<circle fill="#F0B32F" cx="56.3" cy="8.2" r="1"/>
<circle fill="#F0B32F" cx="61" cy="47.8" r="1"/>
</svg>
