<?xml version="1.0" encoding="utf-8"?>
<!-- Generator: Adobe Illustrator 19.0.1, SVG Export Plug-In . SVG Version: 6.00 Build 0)  -->
<svg version="1.1" id="Слой_1" xmlns="http://www.w3.org/2000/svg" xmlns:xlink="http://www.w3.org/1999/xlink" x="0px" y="0px"
	 viewBox="0 0 64 64" style="enable-background:new 0 0 64 64;" xml:space="preserve">
<style type="text/css">
	.st0{fill:none;}
	.st1{fill:#2B7ABF;}
	.st2{fill:#F0B32F;}
</style>
<path class="st0" d="M32.8,14.1c-2,0-3.6-1.4-3.9-3.3C18.2,12.3,10,21.5,10,32.6c0,12.2,9.8,22,22,22s22-9.8,22-22
	c0-10.6-7.4-19.4-17.3-21.5C36.2,12.9,34.7,14.1,32.8,14.1z"/>
<path class="st1" d="M36.8,9.4c0,0.3-0.1,0.7-0.1,1C46.6,12.5,54,21.3,54,31.9c0,12.2-9.8,22-22,22s-22-9.8-22-22
	c0-11.1,8.2-20.3,18.9-21.8c0-0.2-0.1-0.5-0.1-0.7c0-0.1,0-0.2,0-0.3C17.6,10.6,9,20.2,9,31.9c0,12.7,10.3,23,23,23s23-10.3,23-23
	C55,20.8,47.2,11.6,36.8,9.4z"/>
<path class="st2" d="M28.9,10.2c0.3,1.9,2,3.3,3.9,3.3s3.4-1.3,3.9-3c0.1-0.3,0.1-0.6,0.1-1l0,0c0-2.2-1.8-4-4-4
	c-2.1,0-3.8,1.7-4,3.7c0,0.1,0,0.2,0,0.3C28.8,9.7,28.8,9.9,28.9,10.2z M32.8,6.4c1.6,0,2.9,1.3,3,2.8c0,0.1,0,0.1,0,0.2
	c0,0.3-0.1,0.6-0.1,0.8c-0.4,1.3-1.5,2.2-2.9,2.2c-1.4,0-2.6-1-2.9-2.4c0-0.2-0.1-0.4-0.1-0.6c0-0.1,0-0.3,0-0.4
	C30,7.6,31.3,6.4,32.8,6.4z"/>
<circle class="st2" cx="49.5" cy="51.1" r="1"/>
</svg>
