<?xml version="1.0" encoding="utf-8"?>
<!-- Generator: Adobe Illustrator 19.0.1, SVG Export Plug-In . SVG Version: 6.00 Build 0)  -->
<svg version="1.1" id="Слой_1" xmlns="http://www.w3.org/2000/svg" xmlns:xlink="http://www.w3.org/1999/xlink" x="0px" y="0px"
	 viewBox="0 0 64 64" enable-background="new 0 0 64 64" xml:space="preserve">
<path fill="none" d="M16.8,53.4c0,1.4-0.5,2.7-1.3,3.7C20.3,60.2,25.9,62,32,62c16.6,0,30-13.4,30-30S48.6,2,32,2S2,15.4,2,32
	c0,6.2,1.9,12,5.1,16.7c1-0.8,2.3-1.3,3.7-1.3C14.1,47.4,16.8,50.1,16.8,53.4z"/>
<g>
	<path fill="#2B7ABF" d="M32,1C14.9,1,1,14.9,1,32c0,6.5,2,12.5,5.4,17.4c0.2-0.3,0.5-0.5,0.7-0.7C3.9,44,2,38.2,2,32
		C2,15.4,15.4,2,32,2s30,13.4,30,30S48.6,62,32,62c-6.1,0-11.7-1.8-16.4-4.9c-0.2,0.3-0.4,0.5-0.7,0.7C19.8,61.1,25.7,63,32,63
		c17.1,0,31-13.9,31-31C63,14.9,49.1,1,32,1z"/>
	<path fill="#F0B32F" d="M15.6,57.1c0.8-1,1.3-2.3,1.3-3.7c0-3.3-2.7-6-6-6c-1.4,0-2.7,0.5-3.7,1.3c-0.3,0.2-0.5,0.4-0.7,0.7
		c-1,1.1-1.5,2.5-1.5,4c0,3.3,2.7,6,6,6c1.6,0,3-0.6,4.1-1.6C15.1,57.6,15.4,57.4,15.6,57.1z M10.8,58.4c-2.8,0-5-2.2-5-5
		c0-1.2,0.4-2.3,1.1-3.1c0.2-0.3,0.5-0.5,0.7-0.7c0.9-0.7,1.9-1.1,3.1-1.1c2.8,0,5,2.2,5,5c0,1.2-0.4,2.2-1.1,3.1
		c-0.2,0.3-0.4,0.5-0.7,0.7C13.1,58,12,58.4,10.8,58.4z"/>
</g>
<circle fill="#F0B32F" cx="10.8" cy="2" r="1"/>
<circle fill="#F0B32F" cx="56.3" cy="8.2" r="1"/>
<circle fill="#F0B32F" cx="61" cy="47.8" r="1"/>
<path fill="none" d="M32.8,12.2c-2,0-3.6-1.4-3.9-3.3C18.2,10.5,10,19.6,10,30.7c0,12.2,9.8,22,22,22s22-9.8,22-22
	c0-10.6-7.4-19.4-17.3-21.5C36.2,10.9,34.7,12.2,32.8,12.2z"/>
<path fill="#2B7ABF" d="M36.8,8.9c0,0.3-0.1,0.7-0.1,1C46.6,12,54,20.8,54,31.4c0,12.2-9.8,22-22,22s-22-9.8-22-22
	c0-11.1,8.2-20.3,18.9-21.8c0-0.2-0.1-0.5-0.1-0.7c0-0.1,0-0.2,0-0.3C17.6,10.2,9,19.8,9,31.4c0,12.7,10.3,23,23,23s23-10.3,23-23
	C55,20.3,47.2,11.1,36.8,8.9z"/>
<path fill="#F0B32F" d="M28.9,9.9c0.3,1.9,2,3.3,3.9,3.3c1.9,0,3.4-1.3,3.9-3c0.1-0.3,0.1-0.6,0.1-1c0,0,0,0,0,0c0-2.2-1.8-4-4-4
	c-2.1,0-3.8,1.7-4,3.7c0,0.1,0,0.2,0,0.3C28.8,9.4,28.8,9.7,28.9,9.9z M32.8,6.2c1.6,0,2.9,1.3,3,2.8c0,0.1,0,0.1,0,0.2
	c0,0.3-0.1,0.6-0.1,0.8c-0.4,1.3-1.5,2.2-2.9,2.2c-1.4,0-2.6-1-2.9-2.4c0-0.2-0.1-0.4-0.1-0.6c0-0.1,0-0.3,0-0.4
	C30,7.3,31.3,6.2,32.8,6.2z"/>
<circle fill="#F0B32F" cx="43.4" cy="52.7" r="1"/>
<path fill="#2B7ABF" d="M44.1,42.7c-0.2-0.1-0.3-0.1-0.4-0.2c-0.1-0.1-0.3-0.2-0.4-0.4c-4.9,5.6-13.3,6.8-19.6,2.5
	c-6.9-4.6-8.7-14-4-20.8c4.6-6.9,14-8.7,20.8-4c6.3,4.3,8.3,12.5,5,19.2c0.2,0.1,0.3,0.1,0.5,0.2c0.1,0.1,0.3,0.2,0.4,0.3
	c3.6-7.1,1.5-16-5.3-20.5c-7.3-4.9-17.3-3-22.2,4.3s-3,17.3,4.3,22.2C29.9,50.1,38.9,48.7,44.1,42.7z"/>
<path fill="#F0B32F" d="M42.8,41.3c0.2,0.9,1,1.5,1.9,1.5c0.9,0,1.7-0.6,1.9-1.5c0-0.2,0.1-0.3,0.1-0.5c0-0.2,0-0.3-0.1-0.5
	c-0.2-0.9-1-1.5-1.9-1.5s-1.7,0.6-1.9,1.5c0,0.2-0.1,0.3-0.1,0.5C42.7,41,42.8,41.1,42.8,41.3z M44.7,39.8c0.3,0,0.6,0.2,0.8,0.4
	c0.1,0.2,0.2,0.4,0.2,0.6c0,0.2,0,0.3-0.1,0.4c-0.2,0.3-0.5,0.6-0.9,0.6c-0.4,0-0.7-0.2-0.9-0.6c-0.1-0.1-0.1-0.3-0.1-0.4
	c0-0.2,0.1-0.4,0.2-0.6C44.1,40,44.4,39.8,44.7,39.8z"/>
<path fill="#F0B32F" d="M32,24.2c-4.4,0-8,3.6-8,8s3.6,8,8,8s8-3.6,8-8S36.5,24.2,32,24.2z M32,39.2c-3.9,0-7-3.1-7-7
	c0-3.9,3.1-7,7-7c3.9,0,7,3.1,7,7C39,36.1,35.9,39.2,32,39.2z"/>
</svg>
